<?xml version="1.0" encoding="utf-8"?>
<svg xmlns="http://www.w3.org/2000/svg" style="margin: auto; background: transparent; display: block; shape-rendering: auto;" width="286" height="250" preserveAspectRatio="xMidYMid">
<style type="text/css">
  text {
    text-anchor: middle; font-size: 52px; opacity: 0;
  }
</style>
<g style="transform-origin: 143px 125px; transform: scale(0.8);">
<g transform="translate(143,125)">
  <g transform="translate(0,0)"><g class="path" style="transform: scale(0.91); transform-origin: -132.25px -2.62184px; animation: 1.16279s linear -0.697674s infinite normal forwards running breath-577cddda-6392-4623-8282-d46ece06a7a0;"><path d="M37.05-42.90L35.88-38.09L35.88-38.09Q34.26-38.61 32.44-39.03L32.44-39.03L32.44-39.03Q30.62-39.45 28.44-39.75L28.44-39.75L28.44-39.75Q26.26-40.04 23.86-40.04L23.86-40.04L23.86-40.04Q19.96-40.04 17.23-38.35L17.23-38.35L17.23-38.35Q14.50-36.66 12.77-34.03L12.77-34.03L12.77-34.03Q11.05-31.39 10.27-28.14L10.27-28.14L10.27-28.14Q9.49-24.89 9.49-21.71L9.49-21.71L9.49-21.71Q9.49-17.68 10.63-14.40L10.63-14.40L10.63-14.40Q11.77-11.12 13.75-8.81L13.75-8.81L13.75-8.81Q15.73-6.50 18.36-5.27L18.36-5.27L18.36-5.27Q21.00-4.03 23.92-4.03L23.92-4.03L23.92-4.03Q26.65-4.03 28.93-4.32L28.93-4.32L28.93-4.32Q31.20-4.62 32.83-4.94L32.83-4.94L32.83-4.94Q34.71-5.33 36.20-5.85L36.20-5.85L37.31-1.24L37.31-1.24Q35.55-0.65 33.41-0.20L33.41-0.20L33.41-0.20Q31.59 0.20 29.19 0.52L29.19 0.52L29.19 0.52Q26.78 0.84 23.92 0.84L23.92 0.84L23.92 0.84Q18.79 0.84 14.92-0.84L14.92-0.84L14.92-0.84Q11.05-2.54 8.48-5.56L8.48-5.56L8.48-5.56Q5.92-8.58 4.62-12.71L4.62-12.71L4.62-12.71Q3.31-16.84 3.31-21.78L3.31-21.78L3.31-21.78Q3.31-27.43 4.88-31.75L4.88-31.75L4.88-31.75Q6.44-36.08 9.17-39L9.17-39L9.17-39Q11.89-41.93 15.67-43.42L15.67-43.42L15.67-43.42Q19.44-44.91 23.92-44.91L23.92-44.91L23.92-44.91Q26.65-44.91 29.02-44.62L29.02-44.62L29.02-44.62Q31.39-44.33 33.38-43.88L33.38-43.88L33.38-43.88Q35.36-43.42 37.05-42.90L37.05-42.90" fill="#00599f" stroke="none" stroke-width="none" transform="translate(-152.55996704101562,19.413164922540833)" style="fill: rgb(0, 89, 159);"></path></g><g class="path" style="transform: scale(0.91); transform-origin: -97.895px 3.16316px; animation: 1.16279s linear -0.627907s infinite normal forwards running breath-577cddda-6392-4623-8282-d46ece06a7a0;"><path d="M62.34-7.61L62.34-15.02L62.34-15.02Q61.03-14.95 59.86-14.88L59.86-14.88L59.86-14.88Q58.70-14.82 57.56-14.72L57.56-14.72L57.56-14.72Q56.42-14.63 55.51-14.50L55.51-14.50L55.51-14.50Q50.83-13.91 48.88-12.45L48.88-12.45L48.88-12.45Q46.93-10.99 46.93-8.26L46.93-8.26L46.93-8.26Q46.93-5.98 48.33-4.84L48.33-4.84L48.33-4.84Q49.72-3.71 52-3.71L52-3.71L52-3.71Q55.12-3.71 57.56-4.78L57.56-4.78L57.56-4.78Q59.99-5.85 62.34-7.61L62.34-7.61zM62.92 0.52L62.27-3.06L62.27-3.06Q59.22-1.30 56.58-0.23L56.58-0.23L56.58-0.23Q53.95 0.84 50.89 0.84L50.89 0.84L50.89 0.84Q46.54 0.84 43.97-1.27L43.97-1.27L43.97-1.27Q41.41-3.38 41.41-8.26L41.41-8.26L41.41-8.26Q41.41-10.79 42.70-12.68L42.70-12.68L42.70-12.68Q44.00-14.56 46.12-15.83L46.12-15.83L46.12-15.83Q48.23-17.09 50.89-17.81L50.89-17.81L50.89-17.81Q53.56-18.53 56.36-18.72L56.36-18.72L56.36-18.72Q57.52-18.85 59.41-18.95L59.41-18.95L59.41-18.95Q61.30-19.05 62.34-19.11L62.34-19.11L62.34-19.11Q62.34-21.39 62.20-23.17L62.20-23.17L62.20-23.17Q62.08-24.96 61.42-26.23L61.42-26.23L61.42-26.23Q60.77-27.50 59.51-28.14L59.51-28.14L59.51-28.14Q58.24-28.80 55.90-28.80L55.90-28.80L55.90-28.80Q54.02-28.80 52.26-28.57L52.26-28.57L52.26-28.57Q50.50-28.34 49.14-28.08L49.14-28.08L49.14-28.08Q47.52-27.76 46.15-27.37L46.15-27.37L45.11-31.85L45.11-31.85Q46.73-32.24 48.62-32.56L48.62-32.56L48.62-32.56Q50.24-32.89 52.39-33.12L52.39-33.12L52.39-33.12Q54.53-33.34 57.00-33.34L57.00-33.34L57.00-33.34Q60.32-33.34 62.37-32.37L62.37-32.37L62.37-32.37Q64.41-31.39 65.55-29.74L65.55-29.74L65.55-29.74Q66.69-28.08 67.11-25.97L67.11-25.97L67.11-25.97Q67.53-23.86 67.53-21.52L67.53-21.52L67.53-5.92L67.53-5.92Q67.53-5.00 67.57-4.00L67.57-4.00L67.57-4.00Q67.60-2.99 67.70-2.02L67.70-2.02L67.70-2.02Q67.80-1.04 67.92 0L67.92 0L62.92 0.52" fill="#00599f" stroke="none" stroke-width="none" transform="translate(-152.55996704101562,19.413164922540833)" style="fill: rgb(0, 89, 159);"></path></g><g class="path" style="transform: scale(0.91); transform-origin: -67.9px 2.73784px; animation: 1.16279s linear -0.55814s infinite normal forwards running breath-577cddda-6392-4623-8282-d46ece06a7a0;"><path d="M76.77 0L76.77-27.43L76.77-27.43Q76.77-28.93 76.44-32.11L76.44-32.11L81.25-32.76L81.77-28.02L81.83-28.02L81.83-28.02Q83.00-29.51 84.11-30.62L84.11-30.62L84.11-30.62Q85.22-31.72 86.42-32.53L86.42-32.53L86.42-32.53Q87.62-33.34 88.72-33.34L88.72-33.34L88.72-33.34Q90.22-33.41 92.88-33.02L92.88-33.02L91.72-28.02L91.72-28.02Q89.57-28.41 88.72-28.34L88.72-28.34L88.72-28.34Q87.62-28.34 86.38-27.30L86.38-27.30L86.38-27.30Q85.15-26.26 84.24-25.09L84.24-25.09L84.24-25.09Q83.07-23.66 81.97-21.84L81.97-21.84L81.97 0L76.77 0" fill="#00599f" stroke="none" stroke-width="none" transform="translate(-152.55996704101562,19.413164922540833)" style="fill: rgb(0, 89, 159);"></path></g><g class="path" style="transform: scale(0.91); transform-origin: -43px 10.6382px; animation: 1.16279s linear -0.488372s infinite normal forwards running breath-577cddda-6392-4623-8282-d46ece06a7a0;"><path d="M123.24-31.92L123.24 3.12L123.24 3.12Q123.24 5.53 122.72 7.80L122.72 7.80L122.72 7.80Q122.20 10.08 120.74 11.86L120.74 11.86L120.74 11.86Q119.28 13.65 116.64 14.72L116.64 14.72L116.64 14.72Q114.01 15.79 109.72 15.79L109.72 15.79L109.72 15.79Q106.99 15.73 104.98 15.47L104.98 15.47L104.98 15.47Q102.96 15.21 101.14 14.72L101.14 14.72L101.14 14.72Q99.32 14.24 97.83 13.59L97.83 13.59L99.19 9.04L99.19 9.04Q101.73 10.14 104.36 10.72L104.36 10.72L104.36 10.72Q106.99 11.31 109.07 11.31L109.07 11.31L109.07 11.31Q111.34 11.31 113.03 10.86L113.03 10.86L113.03 10.86Q114.73 10.40 115.86 9.33L115.86 9.33L115.86 9.33Q117 8.26 117.55 6.50L117.55 6.50L117.55 6.50Q118.11 4.75 118.11 2.15L118.11 2.15L118.11-2.60L118.11-2.60Q116.74-1.69 115.28-0.94L115.28-0.94L115.28-0.94Q113.81-0.20 112.16 0.33L112.16 0.33L112.16 0.33Q110.50 0.84 108.94 0.84L108.94 0.84L108.94 0.84Q102.90 0.84 99.39-3.41L99.39-3.41L99.39-3.41Q95.88-7.67 95.88-16.12L95.88-16.12L95.88-16.12Q95.88-21.00 97.40-24.28L97.40-24.28L97.40-24.28Q98.93-27.56 101.27-29.57L101.27-29.57L101.27-29.57Q103.61-31.59 106.41-32.47L106.41-32.47L106.41-32.47Q109.20-33.34 111.73-33.34L111.73-33.34L111.73-33.34Q115.05-33.34 117.81-32.79L117.81-32.79L117.81-32.79Q120.58-32.24 123.24-31.92L123.24-31.92zM109.53-3.71L109.53-3.71L109.53-3.71Q110.95-3.71 112.45-4.23L112.45-4.23L112.45-4.23Q113.95-4.75 115.34-5.46L115.34-5.46L115.34-5.46Q116.74-6.17 118.11-7.15L118.11-7.15L118.11-27.89L118.11-27.89Q117.33-28.08 116.28-28.34L116.28-28.34L116.28-28.34Q115.38-28.47 114.20-28.63L114.20-28.63L114.20-28.63Q113.03-28.80 111.73-28.80L111.73-28.80L111.73-28.80Q109.00-28.80 107.06-27.82L107.06-27.82L107.06-27.82Q105.11-26.85 103.84-25.16L103.84-25.16L103.84-25.16Q102.57-23.46 101.98-21.19L101.98-21.19L101.98-21.19Q101.40-18.91 101.40-16.38L101.40-16.38L101.40-16.38Q101.40-14.11 101.89-11.83L101.89-11.83L101.89-11.83Q102.38-9.55 103.42-7.74L103.42-7.74L103.42-7.74Q104.45-5.92 105.95-4.81L105.95-4.81L105.95-4.81Q107.45-3.71 109.53-3.71" fill="#00599f" stroke="none" stroke-width="none" transform="translate(-152.55996704101562,19.413164922540833)" style="fill: rgb(0, 89, 159);"></path></g><g class="path" style="transform: scale(0.91); transform-origin: -9.42997px 3.16316px; animation: 1.16279s linear -0.418605s infinite normal forwards running breath-577cddda-6392-4623-8282-d46ece06a7a0;"><path d="M150.80-7.61L150.80-15.02L150.80-15.02Q149.50-14.95 148.33-14.88L148.33-14.88L148.33-14.88Q147.16-14.82 146.02-14.72L146.02-14.72L146.02-14.72Q144.88-14.63 143.97-14.50L143.97-14.50L143.97-14.50Q139.30-13.91 137.34-12.45L137.34-12.45L137.34-12.45Q135.40-10.99 135.40-8.26L135.40-8.26L135.40-8.26Q135.40-5.98 136.79-4.84L136.79-4.84L136.79-4.84Q138.19-3.71 140.47-3.71L140.47-3.71L140.47-3.71Q143.59-3.71 146.02-4.78L146.02-4.78L146.02-4.78Q148.46-5.85 150.80-7.61L150.80-7.61zM151.38 0.52L150.74-3.06L150.74-3.06Q147.68-1.30 145.05-0.23L145.05-0.23L145.05-0.23Q142.41 0.84 139.36 0.84L139.36 0.84L139.36 0.84Q135.00 0.84 132.44-1.27L132.44-1.27L132.44-1.27Q129.87-3.38 129.87-8.26L129.87-8.26L129.87-8.26Q129.87-10.79 131.17-12.68L131.17-12.68L131.17-12.68Q132.47-14.56 134.58-15.83L134.58-15.83L134.58-15.83Q136.69-17.09 139.36-17.81L139.36-17.81L139.36-17.81Q142.03-18.53 144.82-18.72L144.82-18.72L144.82-18.72Q145.99-18.85 147.88-18.95L147.88-18.95L147.88-18.95Q149.76-19.05 150.80-19.11L150.80-19.11L150.80-19.11Q150.80-21.39 150.67-23.17L150.67-23.17L150.67-23.17Q150.54-24.96 149.89-26.23L149.89-26.23L149.89-26.23Q149.24-27.50 147.97-28.14L147.97-28.14L147.97-28.14Q146.71-28.80 144.37-28.80L144.37-28.80L144.37-28.80Q142.48-28.80 140.72-28.57L140.72-28.57L140.72-28.57Q138.97-28.34 137.60-28.08L137.60-28.08L137.60-28.08Q135.98-27.76 134.62-27.37L134.62-27.37L133.57-31.85L133.57-31.85Q135.20-32.24 137.09-32.56L137.09-32.56L137.09-32.56Q138.71-32.89 140.85-33.12L140.85-33.12L140.85-33.12Q143-33.34 145.47-33.34L145.47-33.34L145.47-33.34Q148.78-33.34 150.83-32.37L150.83-32.37L150.83-32.37Q152.88-31.39 154.02-29.74L154.02-29.74L154.02-29.74Q155.16-28.08 155.58-25.97L155.58-25.97L155.58-25.97Q156-23.86 156-21.52L156-21.52L156-5.92L156-5.92Q156-5.00 156.03-4.00L156.03-4.00L156.03-4.00Q156.06-2.99 156.16-2.02L156.16-2.02L156.16-2.02Q156.26-1.04 156.39 0L156.39 0L151.38 0.52" fill="#00599f" stroke="none" stroke-width="none" transform="translate(-152.55996704101562,19.413164922540833)" style="fill: rgb(0, 89, 159);"></path></g><g class="path" style="transform: scale(0.91); transform-origin: 25.675px 2.74316px; animation: 1.16279s linear -0.348837s infinite normal forwards running breath-577cddda-6392-4623-8282-d46ece06a7a0;"><path d="M165.23 0L165.23-26.20L165.23-26.20Q165.30-27.56 164.91-32.11L164.91-32.11L169.72-32.76L170.43-28.60L170.43-28.60Q172.38-29.90 174.30-30.88L174.30-30.88L174.30-30.88Q176.22-31.85 178.23-32.60L178.23-32.60L178.23-32.60Q180.25-33.34 182.13-33.34L182.13-33.34L182.13-33.34Q184.80-33.34 186.58-32.73L186.58-32.73L186.58-32.73Q188.37-32.11 189.48-30.68L189.48-30.68L189.48-30.68Q190.58-29.25 191.07-26.91L191.07-26.91L191.07-26.91Q191.56-24.57 191.56-21.06L191.56-21.06L191.56 0L186.36 0L186.36-20.48L186.36-20.48Q186.36-22.43 186.29-23.95L186.29-23.95L186.29-23.95Q186.23-25.48 185.74-26.55L185.74-26.55L185.74-26.55Q185.25-27.63 184.24-28.21L184.24-28.21L184.24-28.21Q183.24-28.80 181.42-28.80L181.42-28.80L181.42-28.80Q179.73-28.80 177.84-28.05L177.84-28.05L177.84-28.05Q175.96-27.30 174.14-26.32L174.14-26.32L174.14-26.32Q172.32-25.35 170.43-24.05L170.43-24.05L170.43 0L165.23 0" fill="#00599f" stroke="none" stroke-width="none" transform="translate(-152.55996704101562,19.413164922540833)" style="fill: rgb(0, 89, 159);"></path></g><g class="path" style="transform: scale(0.91); transform-origin: 60.285px -4.80184px; animation: 1.16279s linear -0.27907s infinite normal forwards running breath-577cddda-6392-4623-8282-d46ece06a7a0;"><path d="M221.13-7.15L221.13-27.82L221.13-27.82Q218.79-28.47 217.49-28.63L217.49-28.63L217.49-28.63Q216.19-28.80 214.83-28.80L214.83-28.80L214.83-28.80Q212.10-28.80 210.15-27.82L210.15-27.82L210.15-27.82Q208.20-26.85 206.93-25.12L206.93-25.12L206.93-25.12Q205.66-23.40 205.08-21.16L205.08-21.16L205.08-21.16Q204.49-18.91 204.49-16.38L204.49-16.38L204.49-16.38Q204.49-14.11 204.98-11.83L204.98-11.83L204.98-11.83Q205.47-9.55 206.51-7.74L206.51-7.74L206.51-7.74Q207.55-5.92 209.04-4.81L209.04-4.81L209.04-4.81Q210.54-3.71 212.62-3.71L212.62-3.71L212.62-3.71Q214.05-3.71 215.57-4.23L215.57-4.23L215.57-4.23Q217.10-4.75 218.40-5.43L218.40-5.43L218.40-5.43Q219.70-6.11 221.13-7.15L221.13-7.15zM221.72 0.52L221.20-2.60L221.20-2.60Q219.70-1.56 218.30-0.88L218.30-0.88L218.30-0.88Q216.91-0.20 215.25 0.33L215.25 0.33L215.25 0.33Q213.59 0.84 212.03 0.84L212.03 0.84L212.03 0.84Q205.92 0.84 202.44-3.48L202.44-3.48L202.44-3.48Q198.97-7.80 198.97-16.12L198.97-16.12L198.97-16.12Q198.97-21.06 200.56-24.38L200.56-24.38L200.56-24.38Q202.15-27.69 204.56-29.67L204.56-29.67L204.56-29.67Q206.96-31.66 209.72-32.50L209.72-32.50L209.72-32.50Q212.49-33.34 214.83-33.34L214.83-33.34L214.83-33.34Q216.00-33.34 217.30-33.18L217.30-33.18L217.30-33.18Q218.60-33.02 221.13-32.37L221.13-32.37L221.13-48.69L226.33-49.27L226.33-5.92L226.33-5.92Q226.33-5.00 226.36-4.00L226.36-4.00L226.36-4.00Q226.40-2.99 226.49-2.02L226.49-2.02L226.49-2.02Q226.59-1.04 226.72 0L226.72 0L221.72 0.52" fill="#00599f" stroke="none" stroke-width="none" transform="translate(-152.55996704101562,19.413164922540833)" style="fill: rgb(0, 89, 159);"></path></g><g class="path" style="transform: scale(0.91); transform-origin: 97.175px 3.16316px; animation: 1.16279s linear -0.209302s infinite normal forwards running breath-577cddda-6392-4623-8282-d46ece06a7a0;"><path d="M239.46-16.19L239.46-16.19L239.46-16.19Q239.46-9.88 242.29-6.79L242.29-6.79L242.29-6.79Q245.12-3.71 249.93-3.71L249.93-3.71L249.93-3.71Q254.67-3.71 257.34-6.76L257.34-6.76L257.34-6.76Q260-9.81 260-15.93L260-15.93L260-15.93Q260-22.43 257.17-25.61L257.17-25.61L257.17-25.61Q254.35-28.80 249.47-28.80L249.47-28.80L249.47-28.80Q244.60-28.80 242.03-25.64L242.03-25.64L242.03-25.64Q239.46-22.49 239.46-16.19zM233.94-16.25L233.94-16.25L233.94-16.25Q233.94-21.19 235.50-24.47L235.50-24.47L235.50-24.47Q237.06-27.76 239.46-29.74L239.46-29.74L239.46-29.74Q241.87-31.72 244.63-32.53L244.63-32.53L244.63-32.53Q247.39-33.34 249.86-33.34L249.86-33.34L249.86-33.34Q252.20-33.34 254.96-32.60L254.96-32.60L254.96-32.60Q257.73-31.85 260.06-29.93L260.06-29.93L260.06-29.93Q262.41-28.02 263.97-24.80L263.97-24.80L263.97-24.80Q265.53-21.58 265.53-16.64L265.53-16.64L265.53-16.64Q265.53-11.51 263.93-8.13L263.93-8.13L263.93-8.13Q262.34-4.75 259.94-2.76L259.94-2.76L259.94-2.76Q257.53-0.78 254.74 0.03L254.74 0.03L254.74 0.03Q251.94 0.84 249.54 0.84L249.54 0.84L249.54 0.84Q247.07 0.84 244.34 0.07L244.34 0.07L244.34 0.07Q241.61-0.72 239.30-2.63L239.30-2.63L239.30-2.63Q236.99-4.55 235.46-7.87L235.46-7.87L235.46-7.87Q233.94-11.18 233.94-16.25" fill="#00599f" stroke="none" stroke-width="none" transform="translate(-152.55996704101562,19.413164922540833)" style="fill: rgb(0, 89, 159);"></path></g><g class="path" style="transform: scale(0.91); transform-origin: 123.07px 15.5782px; animation: 1.16279s linear -0.139535s infinite normal forwards running breath-577cddda-6392-4623-8282-d46ece06a7a0;"><path d="M271.70-3.83L271.70-3.83L271.70-3.83Q271.70-5.40 272.81-6.53L272.81-6.53L272.81-6.53Q273.91-7.67 275.53-7.67L275.53-7.67L275.53-7.67Q277.22-7.67 278.39-6.53L278.39-6.53L278.39-6.53Q279.56-5.40 279.56-3.83L279.56-3.83L279.56-3.83Q279.56-2.21 278.39-1.10L278.39-1.10L278.39-1.10Q277.22 0 275.53 0L275.53 0L275.53 0Q273.91 0 272.81-1.10L272.81-1.10L272.81-1.10Q271.70-2.21 271.70-3.83" fill="#00599f" stroke="none" stroke-width="none" transform="translate(-152.55996704101562,19.413164922540833)" style="fill: rgb(0, 89, 159);"></path></g><g class="path" style="transform: scale(0.91); transform-origin: 137.505px 15.5782px; animation: 1.16279s linear -0.0697674s infinite normal forwards running breath-577cddda-6392-4623-8282-d46ece06a7a0;"><path d="M286.13-3.83L286.13-3.83L286.13-3.83Q286.13-5.40 287.24-6.53L287.24-6.53L287.24-6.53Q288.34-7.67 289.96-7.67L289.96-7.67L289.96-7.67Q291.65-7.67 292.82-6.53L292.82-6.53L292.82-6.53Q294.00-5.40 294.00-3.83L294.00-3.83L294.00-3.83Q294.00-2.21 292.82-1.10L292.82-1.10L292.82-1.10Q291.65 0 289.96 0L289.96 0L289.96 0Q288.34 0 287.24-1.10L287.24-1.10L287.24-1.10Q286.13-2.21 286.13-3.83" fill="#00599f" stroke="none" stroke-width="none" transform="translate(-152.55996704101562,19.413164922540833)" style="fill: rgb(0, 89, 159);"></path></g><g class="path" style="transform: scale(0.91); transform-origin: 151.935px 15.5782px; animation: 1.16279s linear 0s infinite normal forwards running breath-577cddda-6392-4623-8282-d46ece06a7a0;"><path d="M300.56-3.83L300.56-3.83L300.56-3.83Q300.56-5.40 301.67-6.53L301.67-6.53L301.67-6.53Q302.77-7.67 304.39-7.67L304.39-7.67L304.39-7.67Q306.08-7.67 307.25-6.53L307.25-6.53L307.25-6.53Q308.43-5.40 308.43-3.83L308.43-3.83L308.43-3.83Q308.43-2.21 307.25-1.10L307.25-1.10L307.25-1.10Q306.08 0 304.39 0L304.39 0L304.39 0Q302.77 0 301.67-1.10L301.67-1.10L301.67-1.10Q300.56-2.21 300.56-3.83" fill="#00599f" stroke="none" stroke-width="none" transform="translate(-152.55996704101562,19.413164922540833)" style="fill: rgb(0, 89, 159);"></path></g></g>
</g>
</g>
<style id="breath-577cddda-6392-4623-8282-d46ece06a7a0" data-anikit="">@keyframes breath-577cddda-6392-4623-8282-d46ece06a7a0
{
  0% {
    animation-timing-function: cubic-bezier(0.9647,0.2413,-0.0705,0.7911);
    transform: scale(0.9099999999999999);
  }
  51% {
    animation-timing-function: cubic-bezier(0.9226,0.2631,-0.0308,0.7628);
    transform: scale(1.02994);
  }
  100% {
    transform: scale(0.9099999999999999);
  }
}</style></svg>